<!-- QR Code Placeholder -->
<!-- Save this as qr-code-placeholder.svg in assets/images/ -->
<svg xmlns="http://www.w3.org/2000/svg" width="200" height="200" viewBox="0 0 200 200">
  <rect width="200" height="200" fill="white"/>
  <rect x="10" y="10" width="180" height="180" fill="none" stroke="#3b001b" stroke-width="2"/>
  
  <!-- QR Code Pattern Simulation -->
  <g fill="#3b001b">
    <!-- Top-left corner -->
    <rect x="20" y="20" width="50" height="50"/>
    <rect x="30" y="30" width="30" height="30" fill="white"/>
    <rect x="35" y="35" width="20" height="20"/>
    
    <!-- Top-right corner -->
    <rect x="130" y="20" width="50" height="50"/>
    <rect x="140" y="30" width="30" height="30" fill="white"/>
    <rect x="145" y="35" width="20" height="20"/>
    
    <!-- Bottom-left corner -->
    <rect x="20" y="130" width="50" height="50"/>
    <rect x="30" y="140" width="30" height="30" fill="white"/>
    <rect x="35" y="145" width="20" height="20"/>
    
    <!-- Random QR pattern in the middle -->
    <rect x="85" y="30" width="10" height="10"/>
    <rect x="105" y="30" width="10" height="10"/>
    <rect x="90" y="45" width="10" height="10"/>
    <rect x="110" y="45" width="10" height="10"/>
    
    <rect x="30" y="85" width="10" height="10"/>
    <rect x="50" y="85" width="10" height="10"/>
    <rect x="35" y="100" width="10" height="10"/>
    <rect x="55" y="100" width="10" height="10"/>
    
    <rect x="85" y="85" width="10" height="10"/>
    <rect x="105" y="85" width="10" height="10"/>
    <rect x="90" y="100" width="10" height="10"/>
    <rect x="110" y="100" width="10" height="10"/>
    <rect x="100" y="90" width="10" height="10"/>
    
    <rect x="135" y="85" width="10" height="10"/>
    <rect x="155" y="85" width="10" height="10"/>
    <rect x="140" y="100" width="10" height="10"/>
    <rect x="160" y="100" width="10" height="10"/>
    
    <rect x="85" y="135" width="10" height="10"/>
    <rect x="105" y="135" width="10" height="10"/>
    <rect x="90" y="150" width="10" height="10"/>
    <rect x="110" y="150" width="10" height="10"/>
    <rect x="100" y="140" width="10" height="10"/>
    
    <rect x="135" y="135" width="10" height="10"/>
    <rect x="155" y="135" width="10" height="10"/>
    <rect x="145" y="150" width="10" height="10"/>
    <rect x="165" y="150" width="10" height="10"/>
  </g>
  
  <!-- Text label -->
  <text x="100" y="195" text-anchor="middle" font-family="Arial, sans-serif" font-size="8" fill="#3b001b">NCJ2026-6974</text>
</svg>
